<?xml version="1.0" standalone="no"?>
<!DOCTYPE svg PUBLIC "-//W3C//DTD SVG 20010904//EN"
 "http://www.w3.org/TR/2001/REC-SVG-20010904/DTD/svg10.dtd">
<svg version="1.0" xmlns="http://www.w3.org/2000/svg"
 width="300.000000pt" height="268.000000pt" viewBox="0 0 300.000000 268.000000"
 preserveAspectRatio="xMidYMid meet">
<metadata>
Created by potrace 1.16, written by Peter Selinger 2001-2019
</metadata>
<g transform="translate(0.000000,268.000000) scale(0.100000,-0.100000)"
fill="#000000" stroke="none">
<path d="M153 2662 c-36 -18 -109 -88 -133 -127 -15 -25 -18 -52 -18 -167 l0
-138 40 -55 c21 -30 44 -55 51 -55 6 0 -3 15 -20 33 -40 43 -63 78 -63 97 1 8
7 1 15 -17 7 -18 33 -53 57 -79 24 -26 36 -44 28 -39 -13 8 -13 7 -1 -8 15
-19 36 -23 25 -5 -4 7 -3 8 5 4 6 -4 9 -11 6 -16 -9 -14 62 -40 125 -46 59 -6
145 14 145 33 0 6 4 15 9 20 5 5 6 2 1 -6 -5 -9 -3 -12 6 -9 8 3 14 10 14 16
0 5 4 14 9 19 5 5 6 3 2 -4 -13 -24 10 -13 39 17 28 29 28 30 10 50 -23 26
-37 25 -61 -2 l-19 -23 23 19 c12 11 24 17 26 15 2 -2 -10 -15 -27 -29 -17
-14 -27 -19 -22 -11 6 11 4 13 -11 6 -10 -4 -35 -14 -54 -21 -19 -7 -28 -13
-20 -14 32 -1 -15 -20 -50 -20 -36 0 -82 19 -50 21 8 0 -5 7 -29 14 -24 8 -47
13 -50 12 -3 -1 -7 2 -8 6 0 5 -12 21 -26 35 -49 53 -62 91 -62 182 0 90 18
143 64 184 11 10 18 22 16 27 -3 4 0 11 6 15 8 5 9 3 4 -6 -6 -10 -4 -11 11
-5 83 35 153 38 228 9 15 -6 17 -4 11 7 -5 8 -5 11 1 6 5 -5 9 -14 9 -19 0 -6
6 -13 14 -16 9 -3 11 0 5 9 -6 12 -5 12 8 1 9 -8 15 -19 12 -26 -10 -25 24
-25 47 0 l23 24 -29 30 c-31 32 -57 42 -34 13 13 -16 12 -17 -3 -4 -10 7 -15
17 -13 22 20 32 -233 51 -292 21z"/>
<path d="M1560 2663 c0 -6 -54 -141 -120 -299 -66 -158 -120 -289 -120 -291 0
-2 10 -3 23 -4 21 0 21 -1 2 -9 -19 -8 -19 -9 3 -9 15 -1 22 5 22 17 0 19 52
147 64 160 5 4 1 -11 -8 -32 -9 -22 -15 -41 -12 -43 2 -2 9 10 16 27 l13 31
145 -3 145 -3 28 -65 c16 -36 28 -60 29 -54 0 6 -11 37 -25 68 -14 31 -25 62
-25 69 1 16 60 -122 64 -148 2 -13 12 -21 27 -22 22 -2 22 -2 4 6 -19 9 -19
10 -1 10 24 1 29 -13 -108 313 -64 153 -116 281 -116 285 0 5 -11 8 -25 8 -14
0 -25 -5 -25 -12z m98 -225 l69 -166 -126 1 -126 1 118 3 c64 2 117 7 117 11
0 4 -52 6 -115 4 -90 -3 -115 0 -115 10 -1 7 -8 2 -16 -12 -11 -18 -14 -19 -9
-5 10 32 130 323 132 321 1 -1 33 -77 71 -168z"/>
<path d="M1948 2673 c-17 -4 -18 -27 -18 -304 0 -292 0 -299 20 -299 19 0 20
7 20 261 0 143 3 258 8 255 4 -2 22 -26 41 -53 26 -38 27 -42 6 -18 -15 17
-24 23 -19 15 12 -25 325 -450 331 -450 2 0 -12 23 -32 50 -20 28 -34 50 -31
50 10 0 71 -92 71 -108 0 -11 9 -18 25 -19 23 -2 23 -2 5 6 -17 8 -18 10 -2
10 16 1 17 22 17 301 0 293 0 300 -20 300 -19 0 -20 -7 -20 -257 0 -141 -3
-254 -6 -251 -3 3 -5 118 -4 254 0 136 -2 246 -4 243 -3 -3 -6 -111 -6 -240
l-2 -234 -24 30 c-39 48 -86 115 -81 115 3 0 26 -28 51 -62 25 -34 46 -59 46
-55 0 12 -335 460 -345 463 -6 1 -18 0 -27 -3z"/>
<path d="M2713 2665 c0 -15 -237 -584 -242 -580 -2 2 49 130 114 285 65 155
116 283 114 285 -8 7 -240 -565 -234 -575 3 -5 16 -10 28 -11 21 0 21 -1 2 -9
-19 -8 -19 -9 3 -9 13 -1 22 5 22 14 0 18 52 146 57 141 2 -2 -3 -21 -12 -41
-8 -21 -13 -40 -11 -42 2 -2 12 16 21 41 l18 46 146 0 146 0 24 -60 c14 -34
28 -63 32 -66 5 -3 -5 27 -22 67 -17 39 -28 73 -26 75 6 6 59 -125 62 -151 1
-13 10 -21 26 -22 22 -2 22 -2 4 6 -16 8 -17 10 -3 10 35 2 13 81 -92 334 -57
136 -105 246 -107 244 -2 -2 44 -118 102 -257 58 -139 104 -255 102 -257 -5
-5 -222 519 -221 533 1 6 -11 11 -26 11 -15 0 -27 -5 -27 -12z m82 -187 c28
-67 58 -141 67 -164 l17 -42 -127 1 -127 1 118 3 c64 2 117 7 117 12 0 13
-109 267 -110 256 0 -6 23 -64 50 -129 28 -65 50 -120 50 -122 0 -2 -49 -4
-110 -4 -60 0 -110 2 -110 4 0 2 14 36 30 76 17 40 29 75 27 77 -2 2 -21 -37
-42 -87 -20 -50 -39 -90 -41 -88 -4 5 129 328 136 328 3 0 28 -55 55 -122z"/>
<path d="M600 2370 c0 -293 0 -300 20 -300 19 0 20 7 22 148 l2 147 6 -145 6
-145 2 133 2 132 170 0 170 0 2 -132 2 -133 6 145 6 145 2 -147 c2 -141 3
-148 22 -148 20 0 20 7 20 300 0 293 0 300 -20 300 -19 0 -20 -7 -22 -137 l-2
-138 -6 135 -6 135 -2 -122 -2 -123 -170 0 -170 0 -2 123 -2 122 -6 -135 -6
-135 -2 138 c-2 130 -3 137 -22 137 -20 0 -20 -7 -20 -300z"/>
<path d="M1200 2370 c0 -293 0 -300 20 -300 20 0 20 7 20 300 0 293 0 300 -20
300 -20 0 -20 -7 -20 -300z"/>
<path d="M1470 1799 c-69 -4 -140 -12 -158 -17 -23 -8 -30 -8 -26 0 11 17 -39
2 -136 -40 -47 -21 -85 -43 -85 -49 0 -6 -4 -15 -9 -20 -5 -5 -6 -2 -1 6 5 9
3 12 -6 9 -8 -3 -14 -10 -14 -15 0 -6 -4 -15 -9 -20 -5 -5 -6 -2 -1 6 5 9 3
12 -6 9 -8 -3 -14 -10 -14 -15 0 -6 -4 -15 -9 -20 -5 -5 -6 -3 -2 5 12 21 -10
13 -30 -10 -19 -22 -19 -23 1 -8 15 11 14 7 -4 -13 -25 -28 -43 -38 -21 -12 7
9 8 15 2 15 -20 0 -149 -149 -186 -215 -17 -30 -17 -30 1 -6 47 64 49 59 4
-17 -92 -155 -126 -298 -118 -495 7 -158 22 -219 90 -357 28 -58 52 -110 52
-116 0 -6 8 -23 18 -37 26 -39 148 -167 159 -167 6 0 4 8 -3 17 -7 10 -1 7 14
-6 30 -27 37 -41 9 -20 -14 11 -13 10 2 -9 20 -23 42 -31 30 -9 -4 7 -3 9 2 4
5 -5 9 -14 9 -20 0 -5 6 -12 14 -15 9 -3 11 0 6 9 -5 8 -4 11 1 6 5 -5 9 -14
9 -20 0 -5 6 -12 14 -15 9 -3 11 0 6 8 -5 9 -4 11 4 6 6 -4 9 -11 6 -16 -8
-12 33 -33 47 -24 7 4 8 3 4 -4 -4 -7 12 -21 41 -35 101 -51 133 -56 368 -55
191 0 228 2 279 20 80 26 198 87 191 98 -3 5 0 12 6 16 8 5 9 3 4 -6 -5 -8 -3
-11 6 -8 8 3 14 10 14 15 0 6 4 15 9 20 5 5 6 3 2 -4 -11 -19 9 -16 25 4 12
15 12 16 -1 8 -13 -8 -13 -7 -1 8 15 18 26 23 16 7 -3 -6 -2 -10 3 -10 16 0
165 159 199 212 36 56 73 148 72 176 0 9 -8 -8 -18 -39 -19 -61 -67 -153 -88
-170 -7 -6 3 15 22 47 47 77 76 175 74 241 -1 29 -6 53 -10 53 -10 0 -39 -41
-39 -55 1 -5 7 1 15 15 30 53 13 3 -27 -79 -48 -99 -58 -89 -28 28 28 112 42
225 34 293 -6 50 -9 57 -27 54 -15 -2 -27 -24 -52 -103 -19 -55 -43 -119 -54
-141 -12 -23 -21 -45 -21 -49 2 -21 57 103 86 192 18 55 33 95 33 88 2 -23
-51 -178 -79 -234 -22 -43 -34 -56 -51 -55 -16 1 -33 -14 -59 -52 -21 -29 -52
-68 -69 -86 -17 -18 -29 -35 -26 -37 3 -3 -7 -16 -22 -30 -15 -13 -21 -16 -14
-6 8 10 9 17 3 17 -11 0 -27 -19 -27 -32 0 -3 -4 -10 -9 -15 -5 -5 -6 -2 -1 6
5 9 3 12 -6 9 -8 -3 -14 -10 -14 -16 0 -5 -4 -14 -9 -19 -5 -5 -6 -2 -1 6 9
16 11 16 -75 -26 -101 -51 -175 -65 -305 -61 -62 1 -111 5 -109 7 5 5 -65 40
-130 67 -22 8 -52 24 -67 35 -34 24 -46 24 -28 2 11 -16 11 -16 -1 -5 -8 7
-15 16 -15 20 0 4 -25 32 -55 62 -30 30 -50 48 -45 40 8 -13 7 -13 -8 -1 -19
15 -23 26 -6 15 7 -4 10 -3 7 2 -2 5 -23 47 -45 94 -74 152 -92 330 -47 480
29 98 104 230 168 295 33 33 60 63 60 67 1 3 5 10 10 15 5 5 6 2 1 -6 -5 -9
-3 -12 6 -9 8 3 13 10 12 16 -2 7 4 9 14 5 12 -5 14 -3 8 7 -5 8 -4 11 3 7 13
-9 44 2 37 13 -3 4 2 11 11 14 8 3 12 2 9 -4 -8 -13 2 -12 45 6 33 13 33 14 5
8 -53 -10 -18 8 42 22 112 26 337 12 350 -22 3 -8 9 -14 15 -14 5 0 6 6 3 13
-4 6 -1 5 7 -4 19 -23 58 -41 74 -35 8 3 13 2 10 -3 -7 -11 62 -54 74 -46 4 3
14 -3 21 -13 13 -16 13 -16 -6 -2 -11 8 9 -15 45 -51 100 -101 167 -230 189
-363 6 -37 9 -43 10 -20 1 39 -33 152 -65 217 -14 26 -22 47 -19 47 9 0 53
-96 73 -160 11 -36 23 -93 27 -127 4 -37 11 -60 17 -57 19 12 -10 175 -49 269
-45 110 -57 129 -132 210 l-74 80 79 -80 c44 -44 90 -100 102 -125 12 -25 22
-38 22 -30 0 26 -69 119 -138 186 -61 59 -93 81 -76 52 4 -8 3 -10 -2 -5 -5 5
-9 14 -9 20 0 5 -6 12 -14 15 -9 3 -11 0 -6 -8 5 -9 4 -11 -4 -6 -6 4 -9 11
-6 16 3 5 -17 21 -46 35 -29 15 -48 21 -44 13 3 -7 1 -6 -7 3 -13 16 -51 39
-64 39 -4 0 1 -7 12 -16 18 -14 18 -15 -3 -4 -13 6 -23 14 -23 19 0 34 -236
53 -353 29 -43 -10 -66 -11 -64 -4 7 20 103 37 217 39 63 1 118 7 122 12 5 6
8 5 8 -2 0 -7 5 -13 11 -13 5 0 8 4 5 9 -4 5 10 5 33 0 57 -13 91 -27 91 -39
0 -5 5 -10 11 -10 5 0 7 4 4 10 -3 6 1 7 9 4 9 -3 14 -9 11 -13 -6 -10 84 -53
96 -45 5 3 8 0 7 -7 -2 -6 3 -14 11 -17 9 -3 11 0 6 9 -5 8 -4 11 1 6 5 -5 9
-14 9 -20 0 -5 6 -12 14 -15 9 -3 11 0 6 9 -5 8 -4 11 1 6 5 -5 9 -14 9 -20 0
-7 5 -12 12 -12 6 0 23 -13 37 -28 14 -15 30 -26 35 -23 21 14 170 -195 188
-262 7 -28 37 -26 40 3 2 17 2 18 -5 3 -5 -13 -12 -3 -28 42 -25 70 -22 78 6
18 15 -33 18 -36 13 -13 -4 17 -7 38 -7 47 0 9 -5 14 -10 11 -5 -4 -7 1 -3 11
5 11 3 15 -5 10 -7 -5 -9 -2 -6 8 4 8 -4 26 -15 39 -12 14 -18 18 -12 9 6 -10
2 -8 -13 4 -23 20 -31 43 -9 30 29 -19 -71 88 -151 159 -90 81 -143 113 -249
153 -62 23 -108 32 -68 13 17 -8 17 -9 -5 -4 -14 3 -54 10 -90 17 -52 10 -60
14 -40 19 30 8 29 8 -140 -2z"/>
</g>
</svg>
